<?xml version="1.0" encoding="UTF-8"?>
<svg id="Camada_2" data-name="Camada 2" xmlns="http://www.w3.org/2000/svg" viewBox="0 0 250 248.08">
  <defs>
    <style>
      .cls-1 {
        fill: #98999c; /* Updated color */
      }
    </style>
  </defs>
  <g id="Camada_1-2" data-name="Camada 1">
    <g>
      <path class="cls-1" d="M180.75,211.44c-3.79-5.76-11.28-7.64-17.42-4.51-2.32,1.18-4.69,2.26-7.11,3.23-18.76,7.52-40.03,8.38-59.31,2.13-21.3-6.69-39.44-21.6-50.53-40.87-4.73-8.23-14.47-12.15-23.5-9.21l-1.19,.39c-12.61,4.1-17.75,19.15-10.29,30.11,6.57,9.63,14.33,18.3,23.03,25.64,14.82,12.6,32.44,21.63,51.13,26.23,26.73,6.71,55.67,3.75,80.23-8.31,3.75-1.83,7.38-3.86,10.87-6.07,6.36-4.03,8.22-12.46,4.09-18.75h0Z"/>
      <path class="cls-1" d="M76.78,63.7c-3.94,32.07-26.7,55.67-50.84,52.71-8.99-1.1-16.91-5.73-23.1-12.77-3.97-4.51-3.74-11.34,.51-15.59l21.64-21.65c4.45-4.45,4.45-11.68,0-16.13L5.83,31.11c-4.24-4.24-4.47-11.05-.53-15.57C14.75,4.69,27.27-1.33,40.18,.25c24.14,2.97,40.53,31.37,36.6,63.45Z"/>
      <path class="cls-1" d="M249.48,120.57c-3.53,28.76-23.93,49.91-45.58,47.25-8.06-.99-15.16-5.15-20.7-11.45-3.56-4.04-3.34-10.17,.46-13.97l19.4-19.4c3.99-3.99,3.99-10.47,0-14.46l-17.18-17.18c-3.8-3.8-4.01-9.91-.48-13.96,8.47-9.72,19.69-15.11,31.27-13.69,21.64,2.66,36.33,28.12,32.8,56.86Z"/>
    </g>
  </g>
</svg>

