<?xml version="1.0" encoding="UTF-8"?>
<svg id="Camada_2" data-name="Camada 2" xmlns="http://www.w3.org/2000/svg" viewBox="0 0 417.43 225.58">
  <g id="Camada_1-2" data-name="Camada 1">
    <g>
      <path d="M203.87,199.12c-2.73-4.16-8.15-5.52-12.58-3.26-1.67,.85-3.39,1.63-5.14,2.33-13.55,5.43-28.91,6.05-42.83,1.54-15.38-4.83-28.49-15.6-36.49-29.51-3.42-5.94-10.45-8.77-16.97-6.65l-.86,.28c-9.1,2.96-12.82,13.83-7.43,21.74,4.74,6.96,10.35,13.22,16.63,18.52,10.71,9.1,23.43,15.62,36.92,18.94,19.31,4.85,40.2,2.71,57.94-6,2.71-1.32,5.33-2.79,7.85-4.38,4.59-2.91,5.94-9,2.95-13.54h0Z"/>
      <path d="M240.03,65.93c-4.53-7.85-13.43-13.06-22.48-13.7,5.02-3.47,9.16-8.06,11.48-14.09,3.19-8.33,1.17-20.66-8.68-23.25-9.93-2.68-18.51,4.9-25.17,10.99-1.1,1.04-2.19,2.04-3.26,3.03-2.21,2.04-3.12,5.11-2.4,8.02,1.36,5.58,2.82,11.13,4.32,16.67-.14-.1-.87,.11-1.03,.13-.8,.11-1.59,.21-2.38,.32-5,.7-10.1,1.05-14.99,2.36-4.14-6.91-9.18-15.12-17.06-18.41-7.77-3.15-15.78,.91-19.45,8.02-4.58,8.68-3.66,18.65-2.51,27.85,.81,7.95,1.53,23.77,9.97,27.66,3.15,1.4,6.97,.65,9.46-1.66,1.92-1.7,3.01-5.01,3.21-7.2,.84-7.43-.38-15.98,5.09-21.68,1.64-1.76,3.8-3.06,6.03-4.12,3.3,6.72,6.12,13.53,9.12,20.49,1.13,2.63,4.21,3.81,6.82,2.64h0c2.57-1.16,3.72-4.18,2.58-6.76-2.39-5.38-4.83-10.84-7.52-16.28-.62-1.29-1.3-2.61-2.01-3.93,.03-.76,16.56-2.53,16.58-2.47,1.75,6.29,3.53,12.56,5.27,18.8,.77,2.73,3.6,4.34,6.34,3.58,2.75-.76,4.35-3.6,3.59-6.34-1.74-6.22-3.5-12.41-5.22-18.6l.04-.07c.56-.1,1.21-.19,1.84-.22,5.15-.36,10.45,.9,14.75,3.72,3.64,2.33,6.57,5.6,8.57,9.4,1.15,2.19,3.68,3.28,6.02,2.49l.21-.07c3.05-.99,4.49-4.56,2.88-7.35Zm-89.32,26.3s0,0,.01,0c.02,.03,0,.01-.01,0Zm12.83-31.59c-6.22,3.02-11.23,9.33-12.68,15.95-1.22,4.7-1.17,8.83-1.58,12.95-.39-1.05-.68-2.19-.99-3.33-1.04-4.35-1.69-9.07-2.31-13.57-.43-2.62-.96-5.68-1.22-8.25-.5-5.12-.52-9.95,1.67-14.38,1.68-3.45,5.09-5.96,8.85-4.26,4.54,2.01,8.24,8.27,11.06,13.65-.95,.37-1.9,.78-2.81,1.25Zm40.19-9.84c-1.39-5.09-2.71-10.18-3.96-15.27,3.59-3.58,7.03-7.24,11.24-9.91,3.19-2.03,7.76-3.48,9.79,.51,1.22,2.84,1.22,6.27,.25,9.24-2.7,7.65-9.71,12.5-17.32,15.44Z"/>
      <path d="M291.84,76.36h0c-3.38,1.42-4.92,5.32-3.46,8.69,2.16,5,4.05,10.14,5.34,15.37,1.84,7.94,5.32,23.87-2.86,28.91-3.14,2.06-7.09,1.23-9.99-1.1-2.31-1.77-3.82-4.55-4.93-7.24-1.47-3.49-2.46-6.99-3.6-10.75-1.6-5.12-3.24-10.77-4.62-16.25-.91-3.62-4.66-5.74-8.23-4.65h0c-3.55,1.08-5.48,4.9-4.25,8.4,1.93,5.52,4.05,11.36,5.87,16.4,1.87,5.21,3.81,10.75,6.63,15.62,3.41,5.79,9.11,10.31,15.96,11.46,5.74,.99,11.94-1.03,16.21-5,8.2-7.78,7.97-19.91,6.84-30.13-.98-8.78-3.35-17.42-6.16-25.78-1.21-3.6-5.24-5.4-8.75-3.93Z"/>
      <path d="M54.3,79.4c-3.86-5.01-9.38-8.49-15.61-9.55-14.12-2.16-27.5,6.37-36.96,16.68-2.7,2.93-2.17,7.58,1.06,9.91h0c2.88,2.07,6.84,1.5,9.1-1.23,.73-.88,1.48-1.74,2.26-2.58l8.12,39.59c.69,3.36,3.39,5.95,6.78,6.48,2.29,.36,4.69,.7,5.98,.77,11.76,.85,24.95-3.98,28.13-16.55,1.28-4.4,.28-10.32-4.01-13.14-2.71-1.85-5.26-2.17-8.12-2.33-.69-.03-1.38-.05-2.07-.05,8.84-6.95,12.95-18.09,5.35-28Zm-1.57,36.81c1.75,2.09,.93,4.28-.58,6.89-4.34,6.53-13.99,7-21.21,6.72l-.28-.24c-.35-1.96-1.38-7.7-2.49-13.87,3.07-.42,6.16-1.14,9.16-2.17,5.09-.94,11.53-1.09,15.39,2.67Zm-15.94-12.13c-3.12,1.55-6.55,2.65-10.09,3.32-1.97-10.99-3.72-20.77-3.95-22.03,.36-.23,.73-.45,1.1-.67,4.52-2.59,9.2-4.22,14.18-3.36,4.18,.83,8.61,4.12,9.81,8.22,1.42,6.22-5.98,12.12-11.05,14.52Z"/>
      <path d="M184.63,121.5c-3.86-5.01-9.38-8.49-15.61-9.55-14.12-2.16-27.5,6.37-36.96,16.68-2.7,2.93-2.17,7.58,1.06,9.91h0c2.88,2.07,6.84,1.5,9.1-1.23,.73-.88,1.48-1.74,2.26-2.58,1.56,7.58,6,29.26,8.11,39.56,.68,3.29,3.28,5.84,6.59,6.45,2.04,.37,4.08,.73,6.17,.83,11.76,.85,24.95-3.98,28.13-16.55,1.28-4.4,.28-10.32-4.01-13.14-2.71-1.85-5.26-2.17-8.12-2.33-.69-.03-1.38-.05-2.08-.05,8.84-6.95,12.95-18.09,5.35-28Zm-1.57,36.81c1.75,2.09,.93,4.28-.58,6.89-4.33,6.51-13.94,7-21.15,6.72-.09,0-.19-.01-.29-.02,0,0-2.53-14.1-2.53-14.09,.39,.3,3.13-.65,3.59-.74,2.26-.47,4.53-.94,6.8-1.4,4.63-.93,10.78-1.4,14.15,2.65Zm-15.94-12.13c-3.12,1.55-6.55,2.65-10.09,3.32l-3.95-22.03c.36-.23,.73-.45,1.1-.67,4.52-2.59,9.2-4.22,14.18-3.36,4.18,.83,8.61,4.12,9.81,8.22,1.42,6.22-5.98,12.12-11.05,14.52Z"/>
      <path d="M256.88,.47c-4.81,1.02-9.7,2.92-13.72,5.7-3.39,2.33-6.14,4.72-9.35,6.74-1.54,.97-2.17,2.89-1.46,4.56h0c.82,1.91,3.05,2.74,4.93,1.87,1.35-.63,2.66-1.32,3.91-2.05,.99-.6,1.95-1.19,2.91-1.76,4.55,14.61,8.26,29.45,11.11,44.42-1.53,.59-3.11,1.11-4.71,1.6-1.84,.57-2.91,2.47-2.46,4.34h0c.46,1.9,2.32,3.09,4.24,2.73,4.14-.78,8.32-1.78,12.15-3.77,2.55-1.3,4.89-2.84,7.05-4.45,7.01-5.03,12.95-12.1,15.04-20.65,2.9-12.06-1.27-25.36-10.41-33.71-5.15-4.66-12.3-7.15-19.23-5.58Zm17.34,42.72c-2.28,4.42-5.95,8.22-9.93,11.38-3.84-14.4-8.46-28.56-13.81-42.41,2.02-.87,4.13-1.55,6.46-1.91,.21-.02,1.68-.29,1.88-.31,4.02-.55,7.92,1.47,10.61,4.43,6.68,7.37,9.64,19.67,4.79,28.82Z"/>
      <path d="M412.42,55.84c-3.77-6.73-9.97-12.8-17.85-14.44-4.69-1.01-9.47,.07-13.89,1.67-6.77,2.19-11.65,7.33-17.38,10.99-1.48,.95-2.06,2.82-1.36,4.43h0c.81,1.87,3.02,2.69,4.85,1.79,2.09-1.02,4.78-2.4,6.92-3.72,4.78,15.32,8.72,30.87,11.78,46.56-1.53,.59-3.1,1.09-4.69,1.58-1.84,.56-2.92,2.46-2.48,4.33h0c.45,1.89,2.3,3.1,4.21,2.75,4.24-.79,8.56-1.82,12.44-3.94,7.55-4.25,14.35-9.86,18.52-17.52,5.93-10.57,4.81-24.13-1.08-34.48Zm-16.22,40.37c-.54,.5-1.09,.98-1.64,1.45-4.06-15.13-8.92-30.01-14.52-44.59,2.18-.93,4.41-1.57,6.78-1.95,1.86-.36,3.69-.47,5.51,.05,6.87,2.15,10.92,9.37,12.98,15.95,3.57,11.66-.02,21.25-9.11,29.09Z"/>
      <path d="M325.22,122.12c-4.01-15.87-9.63-31.43-16.79-46.36-.99-2.05-.21-4.52,1.76-5.66h0c2.08-1.2,4.74-.5,5.96,1.57,2.21,3.73,4.32,7.52,6.33,11.36l4.56-12.44c1.16-3.27,3.26-7.61,6.43-10.16,6.52-5.48,14.62-3.11,18.92,3.66,8.01,13.86,13.49,29.12,16.87,44.81,.81,3.75-1.72,7.41-5.52,7.99h0c-3.63,.55-7.01-1.93-7.59-5.55-2.12-13.39-6.07-26.56-11.74-39.03-.59-1.29-1.12-2.84-2.18-3.84-.37-.35-.85-.59-1.36-.56-.98,.07-1.77,1.06-2.34,1.76-.9,1.1-1.68,2.66-2.47,4.46l-5.46,12.71c-1.05,2.58-2.06,5.06-2.81,6.91,3.73,7.98,7.06,16.16,9.97,24.51,1.24,3.57-.74,7.46-4.37,8.51h0c-3.55,1.02-7.27-1.08-8.18-4.66Z"/>
      <path d="M128.78,92.42c-2.84,23.16-19.28,40.21-36.72,38.07-6.5-.79-12.21-4.14-16.68-9.22-2.87-3.26-2.7-8.19,.37-11.26l15.63-15.63c3.22-3.22,3.22-8.43,0-11.65l-13.84-13.84c-3.06-3.06-3.23-7.98-.38-11.25,6.83-7.83,15.87-12.18,25.19-11.04,17.44,2.14,29.27,22.65,26.43,45.82Z"/>
      <path d="M253.5,133.49c-2.55,20.77-17.28,36.05-32.91,34.13-5.82-.72-10.95-3.72-14.95-8.27-2.57-2.92-2.42-7.34,.34-10.09l14.01-14.01c2.88-2.88,2.88-7.56,0-10.44l-12.41-12.41c-2.75-2.75-2.9-7.15-.34-10.08,6.12-7.02,14.22-10.91,22.58-9.89,15.63,1.92,26.24,20.31,23.69,41.07Z"/>
    </g>
  </g>
</svg>